<?xml version="1.0" encoding="UTF-8" standalone="no"?>
<svg
   xmlns:dc="http://purl.org/dc/elements/1.1/"
   xmlns:cc="http://creativecommons.org/ns#"
   xmlns:rdf="http://www.w3.org/1999/02/22-rdf-syntax-ns#"
   xmlns:svg="http://www.w3.org/2000/svg"
   xmlns="http://www.w3.org/2000/svg"
   xmlns:sodipodi="http://sodipodi.sourceforge.net/DTD/sodipodi-0.dtd"
   xmlns:inkscape="http://www.inkscape.org/namespaces/inkscape"
   viewBox="0 0 25 25"
   version="1.1"
   id="svg3763"
   sodipodi:docname="Figma.svg"
   inkscape:version="0.92.4 (5da689c313, 2019-01-14)">
  <sodipodi:namedview
     pagecolor="#ffffff"
     bordercolor="#666666"
     borderopacity="1"
     objecttolerance="10"
     gridtolerance="10"
     guidetolerance="10"
     inkscape:pageopacity="0"
     inkscape:pageshadow="2"
     inkscape:window-width="1920"
     inkscape:window-height="1017"
     id="namedview3765"
     showgrid="false"
     inkscape:zoom="23.928493"
     inkscape:cx="20.805294"
     inkscape:cy="12.870793"
     inkscape:window-x="-8"
     inkscape:window-y="-8"
     inkscape:window-maximized="1"
     inkscape:current-layer="ads_manager" />
  <defs
     id="defs3742">
    <style
       id="style3740">.cls-1{fill:#525967;}.cls-2{fill:#454b57;}.cls-3{fill:#0acf83;}.cls-4{fill:#a259ff;}.cls-5{fill:#f24e1e;}.cls-6{fill:#ff7262;}.cls-7{fill:#1abcfe;}.cls-8{fill:none;}</style>
  </defs>
  <title
     id="title3744">Figma_Social_Interface</title>
  <g
     id="Layer_2"
     data-name="Layer 2">
    <g
       id="Layer_1_copy"
       data-name="Layer 1 copy">
      <g
         id="Figma_icon"
         data-name="Figma icon">
        <g
           id="ads_manager"
           data-name="ads manager">
          <rect
             class="cls-1"
             x="0"
             y="0"
             width="25"
             height="25"
             rx="3.644315"
             ry="3.644315"
             id="rect3746"
             style="fill:#525967;stroke-width:1.8221575" />
          <path
             class="cls-2"
             d="m 21.355685,1.0932946 a 2.5510204,2.5510204 0 0 1 2.55102,2.5510204 v 17.71137 a 2.5510204,2.5510204 0 0 1 -2.55102,2.55102 H 3.644315 A 2.5510204,2.5510204 0 0 1 1.0932946,21.355685 V 3.644315 A 2.5510204,2.5510204 0 0 1 3.644315,1.0932946 h 17.71137 m 0,-1.09329430547858 H 3.644315 A 3.6443149,3.6443149 0 0 0 2.9452142e-7,3.644315 v 17.71137 A 3.6443149,3.6443149 0 0 0 3.644315,25 h 17.71137 A 3.6443149,3.6443149 0 0 0 25,21.355685 V 3.644315 A 3.6443149,3.6443149 0 0 0 21.355685,2.9452142e-7 Z"
             id="path3748"
             inkscape:connector-curvature="0"
             style="fill:#454b57;stroke-width:1.8221575" />
          <path
             id="path0_fill"
             data-name="path0 fill"
             class="cls-3"
             d="M 9.3841113,21.847668 A 3.1158893,3.1158893 0 0 0 12.5,18.731778 V 15.61589 H 9.3841113 a 3.1158893,3.1158893 0 1 0 0,6.231778 z"
             inkscape:connector-curvature="0"
             style="fill:#0acf83;stroke-width:1.8221575" />
          <path
             id="path1_fill"
             data-name="path1 fill"
             class="cls-4"
             d="M 6.2682214,12.5 A 3.1158893,3.1158893 0 0 1 9.3841113,9.3841113 H 12.5 V 15.61589 H 9.3841113 A 3.1158893,3.1158893 0 0 1 6.2682214,12.5 Z"
             inkscape:connector-curvature="0"
             style="fill:#a259ff;stroke-width:1.8221575" />
          <path
             id="path1_fill-2"
             data-name="path1 fill"
             class="cls-5"
             d="M 6.2682214,6.2682214 A 3.1158893,3.1158893 0 0 1 9.3841113,3.1523325 H 12.5 V 9.3841113 H 9.3841113 A 3.1158893,3.1158893 0 0 1 6.2682214,6.2682214 Z"
             inkscape:connector-curvature="0"
             style="fill:#f24e1e;stroke-width:1.8221575" />
          <path
             id="path2_fill"
             data-name="path2 fill"
             class="cls-6"
             d="m 12.5,3.1705541 h 3.11589 a 3.1158893,3.1158893 0 1 1 0,6.2317786 H 12.5 Z"
             inkscape:connector-curvature="0"
             style="fill:#ff7262;stroke-width:1.8221575" />
          <path
             id="path3_fill"
             data-name="path3 fill"
             class="cls-7"
             d="M 18.731778,12.5 A 3.1158893,3.1158893 0 1 1 15.61589,9.3841113 3.1158893,3.1158893 0 0 1 18.731778,12.5 Z"
             inkscape:connector-curvature="0"
             style="fill:#1abcfe;stroke-width:1.8221575" />
        </g>
        <path
           class="cls-8"
           d="M0 0h25v25H0z"
           id="path3756"
           fill="none" />
      </g>
    </g>
  </g>
  <metadata
     id="metadata3761">
    <rdf:RDF>
      <rdf:Description
         about="https://iconscout.com/legal#licenses"
         dc:title="figma,social,interface"
         dc:description="figma,social,interface"
         dc:publisher="Iconscout"
         dc:date="2018-02-01"
         dc:format="image/svg+xml"
         dc:language="en">
        <dc:creator>
          <rdf:Bag>
            <rdf:li>Bohdan Kononets</rdf:li>
          </rdf:Bag>
        </dc:creator>
      </rdf:Description>
      <cc:Work
         rdf:about="">
        <dc:format>image/svg+xml</dc:format>
        <dc:type
           rdf:resource="http://purl.org/dc/dcmitype/StillImage" />
      </cc:Work>
    </rdf:RDF>
  </metadata>
</svg>
